# xmcd
#
# Track frame offsets: 
#        150
#        17494
#        33389
#        52758
#        67315
#        81917
#        105037
#        120018
#        135500
#        152673
#        170082
#        186204
#
# Disc length: 2750 seconds
#
# Revision: 4
# Processed by: cddbd v1.5.2PL0 Copyright (c) Steve Scherf et al.
# Submitted via: ExactAudioCopyFreeDBPlugin 1.0
#
DISCID=8b0abc0c
DTITLE=Jay Perez - No Limits
DYEAR=1996
DGENRE=Tejano
TTITLE0=Una Vez Mas
TTITLE1=Esos Ojitos
TTITLE2=Si Tu No Estas
TTITLE3=Si Tu Ya Tienes Alguien
TTITLE4=Quiero
TTITLE5=Me and Mrs. Jones
TTITLE6=Que Bonito Es
TTITLE7=Ojitos Dormilones
TTITLE8=Eres Tu
TTITLE9=Ya No
TTITLE10=Pero Ya No Voy A Llorar
TTITLE11=The Day God Cried
EXTD=
EXTT0=
EXTT1=
EXTT2=Si tu no estas\nMi vida sin tus ojos no sabre mirar\nLas cosas q
EXTT2=ue a tu lado me isieron so ar\nSi tu no estas si tu no estas \n\n
EXTT2=Ni se quien soy\nSin ti como las olas como el viento voy\nVolvie
EXTT2=ndo aqui y alla siempre sin direcion\nSi tu no estas si tu no es
EXTT2=tas\n\nSi tu no estas\nhay un silencio que reclama tu mirar\nSon
EXTT2=tantas noches sin sentirte sin amar\nY nuestras cosas no se pue
EXTT2=den olvidar\n\nSera el final\nSi no es contigo no me puedo reali
EXTT2=zar\nNo he consumido la mortal nesecida\nhay un vacio entre mis 
EXTT2=brazos si tu no estas\n\nSi tu no estas\nMi vida sin tus ojos no
EXTT2=sabre mirar\nLas cosas que a tu lado me isieron so ar\nSi tu no
EXTT2=estas si tu no estas \n\nNi se quien soy\nSin ti como las olas 
EXTT2=como el viento voy\nVolviendo aqui y alla siempre sin direcion\n
EXTT2=Si tu no estas si tu no estas\n\nSi tu no estas\nhay un silencio
EXTT2=que reclama tu mirar\nSon tantas noches sin sentirte sin amar\n
EXTT2=Y nuestras cosas no se pueden olvidar\n\nSera el final\nSi no es
EXTT2=contigo no me puedo realizar\nNo he consumido la mortal nesecid
EXTT2=a\nhay un vacio entre mis brazos si tu no estas\n
EXTT3=
EXTT4=Quiero acariciar tu piel\nQuiero hacerte muy feliz\nQuiereo aman
EXTT4=ecer contigo\nA la luz del dia con mucha pasion\n\nQuiero besar 
EXTT4=tus labios\nQuiero sentir tu cruerpo\nY nunca dejarte ir\nSolo e
EXTT4=n mis brazos te quiero sentir\n\nQuiero \nQue tu seas mi mujer\n
EXTT4=Que nomas conmigo estes\nEXTT4=nTe doy todo mi nTe doy todo mi q
EXTT4=uerer\n\nQuiero \nQuiero amarte mas y mas\nPrefiero morir si tu 
EXTT4=no estas\nTe quiero hasta el final\n\nQuiero acariciar tu piel\n
EXTT4=Quiero hacerte muy feliz\nQuiereo amanecer contigo\nA la luz del
EXTT4=dia con mucha pasion\n\nQuiero besar tus labios\nQuiero sentir 
EXTT4=tu cruerpo\nY nunca dejarte ir\nSolo en mis brazos te quiero sen
EXTT4=tir\n\nQuiero \nQue tu seas mi mujer\nQue nomas conmigo estes\nT
EXTT4=e doy todo mi querer\n\nQuiero \nQuiero amarte mas y mas\nPrefie
EXTT4=ro morir si tu no estas\nTe quiero hasta el final\n\n
EXTT5=
EXTT6=
EXTT7=
EXTT8=
EXTT9=
EXTT10=
EXTT11=
PLAYORDER=
